<?xml version="1.0" encoding="UTF-8" standalone="no"?>
<svg
   width="512pt"
   height="512pt"
   viewBox="0 0 512 512"
   version="1.1"
   id="svg7"
   sodipodi:docname="neco_dark_32x.svg"
   inkscape:version="1.4.2 (f4327f4, 2025-05-13)"
   xmlns:inkscape="http://www.inkscape.org/namespaces/inkscape"
   xmlns:sodipodi="http://sodipodi.sourceforge.net/DTD/sodipodi-0.dtd"
   xmlns="http://www.w3.org/2000/svg"
   xmlns:svg="http://www.w3.org/2000/svg">
  <defs
     id="defs7" />
  <sodipodi:namedview
     id="namedview7"
     pagecolor="#ffffff"
     bordercolor="#000000"
     borderopacity="0.25"
     inkscape:showpageshadow="2"
     inkscape:pageopacity="0.0"
     inkscape:pagecheckerboard="0"
     inkscape:deskcolor="#d1d1d1"
     inkscape:document-units="pt"
     showguides="false"
     inkscape:zoom="1.0930401"
     inkscape:cx="428.62107"
     inkscape:cy="196.24167"
     inkscape:window-width="2560"
     inkscape:window-height="1530"
     inkscape:window-x="-11"
     inkscape:window-y="25"
     inkscape:window-maximized="1"
     inkscape:current-layer="svg7" />
  <g
     inkscape:groupmode="layer"
     id="layer2"
     inkscape:label="bg">
    <rect
       style="fill:#1c222b;stroke-width:1.652;fill-opacity:1"
       id="rect1"
       width="512"
       height="512"
       x="0"
       y="-3.5527137e-15"
       rx="128"
       ry="128" />
  </g>
  <g
     id="#000000ff"
     transform="matrix(0.60569037,0.07539639,-0.07539639,0.60569037,27.381942,36.531512)"
     style="fill:#ffffff;fill-opacity:1"
     inkscape:label="neco">
    <path
       fill="#000000"
       opacity="1"
       d="m 523.77,43.62 c 5.99,-1.89 12.49,-1.45 18.46,0.28 2.45,1.85 3.58,4.95 5.58,7.25 10.11,12.9 20.98,25.19 30.49,38.56 9.4,13.34 19.31,26.38 27.36,40.61 10.34,18.08 18.92,37.23 24.66,57.28 3.07,10.9 4.66,22.16 7.98,33 1.03,3.32 0.83,7.34 -1.88,9.82 -3.99,4.22 -12.02,2.76 -13.91,-2.86 -2.79,-8.23 -4.31,-16.82 -5.96,-25.33 -5.8,-27.01 -17.82,-52.25 -31.94,-75.83 -10.06,-14.9 -20,-29.89 -30.66,-44.38 -5.06,-5.95 -7.54,-14.12 -14.41,-18.44 -2.92,-1.05 -5.85,-2.29 -7.73,-4.9 -6.64,1.56 -13.35,3.27 -19.26,6.79 -11.95,5.3 -23.28,11.87 -34.36,18.76 -10.89,8.1 -21.95,16 -32.81,24.14 -11.38,9.61 -22.62,19.39 -33.71,29.32 -10.35,8.95 -19.36,19.3 -28.84,29.14 -9.1,9.35 -17.91,19.13 -24.67,30.34 -5.88,9.85 -11.57,19.8 -17.27,29.75 -1.2,2.04 -2.16,4.2 -2.93,6.43 6.49,-1.86 12.5,-5.04 18.81,-7.43 10.83,-4.01 21.45,-8.67 32.58,-11.82 20.78,-7.1 42.58,-10.62 64.3,-13.36 10.74,-1.01 21.54,-2.16 32.34,-1.6 8.07,0.72 16.5,0.45 24.05,3.81 3.49,1.51 5.7,5.29 5.35,9.07 -0.08,4.83 -4.58,9.11 -9.42,8.77 -4.84,-0.35 -9.71,-1.17 -14.53,-0.17 -6.41,1.21 -12.95,1.18 -19.44,1.55 -24.46,2.32 -48.92,5.96 -72.46,13.2 -18.67,5.25 -36.89,11.98 -54.84,19.31 -19.2,7.01 -38.43,14.12 -56.72,23.3 -14.36,7.52 -28.88,14.79 -42.64,23.38 -5.43,3.43 -11.21,6.23 -16.97,9.03 -2.81,1.15 -2.15,4.91 -4.19,6.78 -2.91,2.81 -7.42,2.2 -11.03,1.5 -6.51,-1.33 -10.11,-10.77 -5.03,-15.55 5.18,-4.85 11.99,-7.32 17.97,-10.97 8.4,-5.22 16.43,-11.02 24.85,-16.21 7.99,-4.7 15.95,-9.45 23.99,-14.06 10.35,-5.93 21.26,-10.8 32.11,-15.72 -4.5,-3.17 -7.95,-7.53 -12.22,-10.97 -7.52,-6.18 -15.05,-12.35 -22.8,-18.23 -18.16,-13.75 -34.1,-30.34 -53.39,-42.59 -4.65,-2.94 -9.39,-5.83 -14.56,-7.78 -1.12,1.33 -2.05,2.91 -3.53,3.89 -1.6,0.54 -3.41,0.45 -4.88,1.3 -3.24,8.27 -5.19,17 -7.38,25.6 -6.3,22.32 -7.8,45.61 -9.37,68.64 -3.12,57.93 -3.07,115.99 -1.93,173.98 0.41,11.35 0.81,22.73 2.02,34.04 1.13,8.32 2.95,16.55 5.23,24.64 3.19,10.15 7.14,20.06 9.9,30.34 0.91,4.99 2.86,10.52 0.22,15.31 -1.84,4.26 -7.14,5.45 -11.34,5.03 -4.35,-0.94 -6.89,-4.97 -8.73,-8.67 -3.03,-5.11 -4.35,-10.95 -6.44,-16.45 -2.3,-7.59 -4.83,-15.2 -5.32,-23.17 -1.64,-10.95 -2.64,-21.99 -2.56,-33.06 0.52,-15.66 0.31,-31.33 0.75,-47 1.04,-36.67 0.06,-73.37 1.55,-110.03 0.01,-14.04 1.02,-28.05 1.94,-42.05 1.93,-28.21 4.71,-56.7 13.93,-83.6 2.7,-8.71 6.36,-17.35 12.52,-24.2 -2.09,-2.89 -3.43,-6.92 -1.72,-10.28 4.6,-4.81 11.97,-4.41 17.86,-2.61 24.24,7.4 44.05,23.87 63.43,39.52 8.78,7.23 17.64,14.35 26.42,21.57 8.1,6.58 15.38,14.29 20.84,23.2 1.87,2.63 1.16,5.92 0.98,8.9 2.49,-1.18 1.15,-4.7 2.01,-6.91 3.49,-13.95 11.21,-26.3 18.41,-38.59 6.92,-12.88 15.47,-24.89 25.58,-35.47 9.33,-9.67 18.34,-19.65 27.77,-29.24 13.65,-13.08 28.2,-25.2 42.88,-37.1 9.19,-6.83 18.62,-13.34 27.79,-20.2 7.59,-5.73 16.1,-10.06 24.49,-14.49 11.77,-6.01 23.69,-11.97 36.38,-15.81 z"
       id="path1"
       style="fill:#ffffff;fill-opacity:1" />
    <path
       fill="#000000"
       opacity="1"
       d="m 627.39,245.36 c 2.49,-1.13 6.25,-1.22 7.43,1.78 2.12,4.14 6.38,6.35 9.84,9.2 19.33,14.65 33.99,34.24 48.75,53.23 6.25,7.83 9.32,17.5 13.49,26.48 7.55,18.01 15.24,36.35 17.32,55.95 1.9,16.76 3.65,33.94 0.41,50.65 -0.97,4.83 -2.62,10.12 -7.12,12.8 -4.11,1.13 -9.56,-0.8 -10.57,-5.31 -1.2,-4.73 -0.43,-9.65 -0.28,-14.46 0.7,-9.55 0.57,-19.12 0.64,-28.69 0.17,-10.69 -0.11,-21.49 -2.4,-31.97 -3.62,-14.4 -9.67,-27.99 -15.16,-41.74 -2.42,-6.23 -5.29,-12.34 -9.35,-17.69 -11.77,-16.3 -23.58,-32.84 -38.54,-46.41 -4.79,-4.23 -9.46,-8.61 -14.61,-12.4 -3.95,-2.49 -4.05,-9.15 0.15,-11.42 z"
       id="path2"
       style="fill:#ffffff;fill-opacity:1" />
    <path
       fill="#000000"
       opacity="1"
       d="m 425.43,309.42 c 3.63,-2.02 8.98,0.04 9.89,4.22 1.68,4.51 0.66,9.41 1.86,14.01 3.04,13.63 5.02,27.47 7.95,41.13 0.64,2.84 0.96,6.05 -0.77,8.61 -2.56,4.51 -9.25,5.83 -13.28,2.53 -2.51,-1.8 -3.7,-4.84 -3.83,-7.84 -0.78,-10.02 -1.42,-20.05 -2.73,-30.01 -0.99,-7.65 -2.08,-15.33 -2.02,-23.05 0.05,-3.36 0.49,-7.06 2.93,-9.6 z"
       id="path3"
       style="fill:#ffffff;fill-opacity:1" />
    <path
       fill="#000000"
       opacity="1"
       d="m 567.73,342.95 c 3.88,-7.35 8.62,-15.05 16.52,-18.55 3.67,-1.19 4.8,2.95 6.84,4.88 4.24,0.4 8.5,-0.33 12.74,0.12 4.43,0.48 7.63,5.12 6.98,9.44 -0.12,2.61 -2.01,4.54 -3.55,6.45 -3.2,3.74 -4.98,8.41 -6.85,12.9 4.67,1.88 9.71,2.85 14.13,5.35 3.82,2.17 7.26,5.06 11.47,6.54 3.55,1.31 7.46,3.35 8.66,7.24 0.62,2.44 1.2,5.1 0.47,7.59 -3.12,6.81 -6.76,13.36 -10.81,19.66 5.1,5.07 9.04,11.4 10.8,18.39 -1.03,6.01 -5.12,10.91 -8.09,16.09 -2.24,3.43 -4.18,7.07 -6.63,10.37 -1.85,2.7 -5.34,3.39 -8.37,3.68 -3.01,-0.87 -5.55,-2.83 -8.37,-4.13 0.26,2.62 1.01,5.19 1.06,7.84 -0.41,3.49 -3.87,6.7 -7.5,6 -6.67,-1.15 -13.04,-3.6 -19.71,-4.74 -0.64,5.52 0,11.14 -0.88,16.63 -0.88,2.82 -3.83,4.13 -6.6,4.01 -6.76,0.2 -13.34,1.94 -20.05,2.49 -3.36,0.37 -5.45,-2.4 -7.57,-4.45 -2.39,-0.71 -5.69,-0.65 -6.62,-3.49 -1.5,-6.92 -0.59,-14.06 -1.02,-21.07 -7.44,-1.7 -15.1,-2.34 -22.7,-2.82 -3.51,-0.34 -8.03,1.23 -10.6,-1.98 -1.63,-1.7 -0.48,-4.02 -0.15,-5.95 0.66,-2.21 -0.89,-4.27 -1.02,-6.46 -0.13,-8.2 3.38,-16.21 2.17,-24.41 -4.34,-0.59 -9.55,0.34 -12.85,-3.18 -2.04,-2.24 -5.42,-4.06 -5.38,-7.48 -0.06,-8.57 3.89,-16.48 7.82,-23.87 2.57,-4.84 7.64,-8.26 13.16,-8.49 3.01,-0.51 6.4,0.38 9.18,-0.94 1.37,-4.46 2.59,-8.96 3.72,-13.48 0.9,-3.57 0.3,-7.24 0.33,-10.86 -0.01,-2.91 2.53,-5.62 5.51,-5.5 7.61,-0.15 15.36,-0.36 22.81,1.51 6.99,1.51 13.63,5.03 20.95,4.67 m 8.5,9.03 c -0.09,3.51 -3.56,5.45 -4.68,8.57 -4.19,10.44 -7.73,21.12 -11.27,31.79 -2.74,8.37 -5.85,16.63 -7.9,25.2 -2.62,9.57 -3.08,19.53 -4.14,29.35 -0.59,7.51 -1.77,14.97 -2.31,22.49 5.96,-0.42 11.69,-2.37 17.66,-2.86 0.28,-15.92 3.23,-31.61 5.49,-47.32 4.35,-27.28 12.7,-54.19 26.66,-78.13 -4.48,-0.79 -9.98,0.06 -13.26,-3.75 -3.08,4.34 -6.1,9.17 -6.25,14.66 m -44.76,-4.83 c 0.29,7.56 -2.65,14.5 -5.34,21.37 9.35,1.18 18.32,4.12 27.45,6.31 2.49,-6.21 5.73,-12.16 7.57,-18.59 -4.47,-1.46 -8.7,-3.53 -13.01,-5.38 -5.39,-1.83 -10.97,-3.27 -16.67,-3.71 m 64.74,20.8 c -2.52,6.19 -5.01,12.46 -6.47,18.99 0.66,2.43 3.69,2.63 5.67,3.48 5.75,1.53 10.95,4.47 16.44,6.69 2.8,-4.9 4.63,-10.29 5.88,-15.77 -6.71,-5.14 -13.79,-9.92 -21.52,-13.39 m -94.12,9.92 c -2.29,6.2 -3.55,12.72 -5.33,19.08 11.71,0.19 23.22,2.48 34.67,4.76 3.95,0.76 7.4,2.96 11.22,4.16 2.34,-7.32 5.26,-14.44 7.43,-21.82 -15.57,-4.43 -31.77,-6.97 -47.99,-6.18 m 84.33,20.32 c -1.4,7.94 -3.2,15.83 -3.95,23.86 7.85,2.18 15.37,5.66 21.82,10.67 2.82,2.06 5.25,4.69 8.45,6.19 3.06,-6.36 7.15,-12.25 9.63,-18.86 -1.72,-3.16 -4.95,-5.36 -7.49,-7.9 -8.52,-6.34 -18.24,-11.05 -28.46,-13.96 m -68.28,15.6 c -0.52,8.02 -4.72,15.17 -5.49,23.13 7.98,-0.07 15.92,1.22 23.91,0.94 0.22,-5.26 0.97,-10.46 1.7,-15.67 -2.96,-1.33 -5.38,-3.5 -8.05,-5.28 -3.83,-1.65 -7.97,-2.47 -12.07,-3.12 m 62.87,20.12 c -0.69,3.99 -1.64,8.03 -1.22,12.11 4.07,0.72 8.16,1.35 12.31,1.44 0.65,-2.11 1.21,-4.23 1.69,-6.37 -3.85,-3.02 -7.98,-5.94 -12.78,-7.18 z"
       id="path4"
       style="fill:#ffffff;fill-opacity:1" />
    <path
       fill="#000000"
       opacity="1"
       d="m 319.3,333.2 c 4.56,-2.23 10.61,1.58 10.12,6.75 -0.83,17.03 1.67,34.02 0.83,51.04 -0.36,4.83 -6.83,7.07 -10.46,4.21 -3.09,-2.37 -3.01,-6.62 -3.82,-10.08 -3.05,-13.1 -2.75,-26.68 -2.47,-40.05 0.73,-4.25 1.39,-9.84 5.8,-11.87 z"
       id="path5"
       style="fill:#ffffff;fill-opacity:1" />
    <path
       fill="#000000"
       opacity="1"
       d="m 282.3,432.32 c 6.59,-2.93 12.87,5.83 9.53,11.53 -0.99,1.91 -2.56,3.51 -4.47,4.49 -5.89,3.22 -12.63,4.03 -19.02,5.78 -9.49,2.54 -19.88,2.28 -29.01,-1.49 -3.89,-1.57 -4.86,-7.26 -1.79,-10.09 2.72,-2.98 7,-1.46 10.5,-1.59 11.97,-0.26 22.75,-6.09 34.26,-8.63 z"
       id="path6"
       style="fill:#ffffff;fill-opacity:1" />
    <path
       fill="#000000"
       opacity="1"
       d="m 296.34,478.28 c 6.92,-2.92 14.85,4.47 12.63,11.59 -1.07,5.35 -6.71,7.17 -11.11,9 -10.3,4.57 -21.68,5.85 -32.84,5.96 -9.91,0.12 -20.1,-0.01 -29.56,-3.31 -4.8,-1.85 -4.11,-9.93 0.9,-10.94 10.64,-1.48 21.48,-1.04 32.05,-3.21 9.74,-1.53 18.69,-5.88 27.93,-9.09 z"
       id="path7"
       style="fill:#ffffff;fill-opacity:1" />
  </g>
</svg>
